<?xml version="1.0" encoding="UTF-8" standalone="no"?>
<!DOCTYPE svg PUBLIC "-//W3C//DTD SVG 1.1//EN" "http://www.w3.org/Graphics/SVG/1.1/DTD/svg11.dtd">
<svg width="100%" height="100%" viewBox="0 0 50 50" version="1.1" xmlns="http://www.w3.org/2000/svg" xmlns:xlink="http://www.w3.org/1999/xlink" xml:space="preserve" xmlns:serif="http://www.serif.com/" style="fill-rule:evenodd;clip-rule:evenodd;stroke-linejoin:round;stroke-miterlimit:2;">
    <rect x="0" y="0" width="50" height="50" style="fill-opacity:0;"/>
    <g transform="matrix(1.36411,0,0,1.36411,-4.92269,-4.80527)">
        <path d="M18.623,4.256C10.71,4.256 4.256,10.71 4.256,18.623C4.256,26.536 10.71,32.99 18.623,32.99C21.864,32.99 24.851,31.895 27.26,30.072C27.307,30.13 27.357,30.185 27.41,30.238L36.172,38.828C36.549,39.221 37.071,39.444 37.615,39.444C38.713,39.444 39.616,38.541 39.616,37.443C39.616,36.899 39.393,36.377 39,36L30.238,27.41C30.186,27.357 30.13,27.306 30.072,27.259C31.895,24.851 32.99,21.864 32.99,18.623C32.99,10.71 26.536,4.256 18.623,4.256L18.623,4.256ZM18.623,7.846C24.596,7.846 29.4,12.65 29.4,18.623C29.4,24.596 24.596,29.4 18.623,29.4C12.65,29.4 7.846,24.595 7.846,18.623C7.846,12.649 12.65,7.846 18.623,7.846Z" style="fill:rgb(85,85,85);fill-rule:nonzero;"/>
    </g>
</svg>
